<svg width="179" height="50" viewBox="0 0 179 50" fill="none" xmlns="http://www.w3.org/2000/svg">
<path d="M164.629 16.3636H167.699V21.0746L167.511 23.1605H167.699C168.027 22.6136 168.496 22.1683 169.105 21.8246C169.73 21.4652 170.425 21.2855 171.191 21.2855C172.675 21.2855 173.769 21.723 174.472 22.598C175.191 23.473 175.55 24.6683 175.55 26.184V33.1449H172.48V26.559C172.48 25.7621 172.293 25.1605 171.918 24.7543C171.543 24.3324 171.019 24.1215 170.347 24.1215C169.925 24.1215 169.55 24.2152 169.222 24.4027C168.894 24.5746 168.613 24.8168 168.379 25.1293C168.16 25.4418 167.988 25.809 167.863 26.2308C167.754 26.6371 167.699 27.0746 167.699 27.5433V33.1449H164.629V16.3636Z" fill="white"/>
<path d="M163.459 30.2152C162.959 31.184 162.255 31.9808 161.349 32.6058C160.459 33.2152 159.341 33.5199 157.998 33.5199C157.107 33.5199 156.287 33.3715 155.537 33.0746C154.802 32.7621 154.162 32.3324 153.615 31.7855C153.083 31.2386 152.662 30.598 152.349 29.8636C152.052 29.1136 151.904 28.2933 151.904 27.4027C151.904 26.5121 152.052 25.6918 152.349 24.9418C152.662 24.1918 153.083 23.5511 153.615 23.0199C154.162 22.473 154.802 22.0511 155.537 21.7543C156.287 21.4418 157.107 21.2855 157.998 21.2855C159.326 21.2855 160.443 21.5902 161.349 22.1996C162.255 22.809 162.919 23.598 163.341 24.5668L160.529 25.7386C160.263 25.2074 159.919 24.809 159.498 24.5433C159.091 24.2621 158.576 24.1215 157.951 24.1215C157.544 24.1215 157.162 24.1996 156.802 24.3558C156.443 24.5121 156.123 24.7308 155.841 25.0121C155.576 25.2933 155.365 25.6371 155.208 26.0433C155.052 26.4496 154.974 26.9027 154.974 27.4027C154.974 27.9027 155.052 28.3558 155.208 28.7621C155.365 29.1683 155.576 29.5121 155.841 29.7933C156.123 30.0746 156.443 30.2933 156.802 30.4496C157.162 30.6058 157.544 30.684 157.951 30.684C158.591 30.684 159.13 30.5433 159.568 30.2621C160.021 29.9652 160.38 29.5433 160.646 28.9965L163.459 30.2152Z" fill="white"/>
<path d="M151 30.3793C150.469 31.3168 149.75 32.0746 148.844 32.6527C147.953 33.2308 146.86 33.5199 145.563 33.5199C144.688 33.5199 143.875 33.3715 143.125 33.0746C142.391 32.7621 141.75 32.3324 141.203 31.7855C140.657 31.2386 140.227 30.598 139.914 29.8636C139.618 29.1136 139.469 28.2933 139.469 27.4027C139.469 26.5746 139.618 25.7933 139.914 25.059C140.211 24.309 140.625 23.6605 141.157 23.1136C141.688 22.5511 142.313 22.1058 143.032 21.7777C143.766 21.4496 144.571 21.2855 145.446 21.2855C146.368 21.2855 147.188 21.4418 147.907 21.7543C148.625 22.0511 149.227 22.473 149.711 23.0199C150.196 23.5511 150.563 24.184 150.813 24.9183C151.063 25.6527 151.188 26.4496 151.188 27.309C151.188 27.4183 151.188 27.5121 151.188 27.5902C151.172 27.684 151.164 27.7699 151.164 27.848C151.149 27.9261 151.141 28.0121 151.141 28.1058H142.493C142.555 28.5746 142.68 28.9808 142.868 29.3246C143.071 29.6527 143.313 29.934 143.594 30.1683C143.891 30.3871 144.211 30.5511 144.555 30.6605C144.899 30.7543 145.25 30.8011 145.61 30.8011C146.313 30.8011 146.891 30.6449 147.344 30.3324C147.813 30.0043 148.18 29.598 148.446 29.1136L151 30.3793ZM148.211 25.9261C148.196 25.723 148.125 25.4965 148 25.2465C147.891 24.9965 147.719 24.7621 147.485 24.5433C147.266 24.3246 146.985 24.1449 146.641 24.0043C146.313 23.8636 145.914 23.7933 145.446 23.7933C144.789 23.7933 144.211 23.9808 143.711 24.3558C143.211 24.7308 142.86 25.2543 142.657 25.9261H148.211Z" fill="white"/>
<path d="M132.979 33.1449V19.3636H128.291V16.3636H140.83V19.3636H136.143V33.1449H132.979Z" fill="white"/>
<path d="M127.596 30.3793C127.065 31.3168 126.346 32.0746 125.44 32.6527C124.549 33.2308 123.455 33.5199 122.158 33.5199C121.283 33.5199 120.471 33.3715 119.721 33.0746C118.986 32.7621 118.346 32.3324 117.799 31.7855C117.252 31.2386 116.822 30.598 116.51 29.8636C116.213 29.1136 116.065 28.2933 116.065 27.4027C116.065 26.5746 116.213 25.7933 116.51 25.059C116.807 24.309 117.221 23.6605 117.752 23.1136C118.283 22.5511 118.908 22.1058 119.627 21.7777C120.361 21.4496 121.166 21.2855 122.041 21.2855C122.963 21.2855 123.783 21.4418 124.502 21.7543C125.221 22.0511 125.822 22.473 126.307 23.0199C126.791 23.5511 127.158 24.184 127.408 24.9183C127.658 25.6527 127.783 26.4496 127.783 27.309C127.783 27.4183 127.783 27.5121 127.783 27.5902C127.768 27.684 127.76 27.7699 127.76 27.848C127.744 27.9261 127.736 28.0121 127.736 28.1058H119.088C119.151 28.5746 119.276 28.9808 119.463 29.3246C119.666 29.6527 119.908 29.934 120.19 30.1683C120.486 30.3871 120.807 30.5511 121.151 30.6605C121.494 30.7543 121.846 30.8011 122.205 30.8011C122.908 30.8011 123.486 30.6449 123.94 30.3324C124.408 30.0043 124.776 29.598 125.041 29.1136L127.596 30.3793ZM124.807 25.9261C124.791 25.723 124.721 25.4965 124.596 25.2465C124.486 24.9965 124.315 24.7621 124.08 24.5433C123.861 24.3246 123.58 24.1449 123.236 24.0043C122.908 23.8636 122.51 23.7933 122.041 23.7933C121.385 23.7933 120.807 23.9808 120.307 24.3558C119.807 24.7308 119.455 25.2543 119.252 25.9261H124.807Z" fill="white"/>
<path d="M108.589 21.6605H111.472V23.2543H111.66C111.8 22.973 111.988 22.7152 112.222 22.4808C112.456 22.2465 112.714 22.0433 112.995 21.8715C113.292 21.6996 113.605 21.5668 113.933 21.473C114.277 21.3793 114.613 21.3324 114.941 21.3324C115.347 21.3324 115.691 21.3715 115.972 21.4496C116.269 21.5277 116.519 21.6293 116.722 21.7543L115.902 24.5433C115.714 24.4496 115.503 24.3793 115.269 24.3324C115.05 24.2699 114.777 24.2386 114.449 24.2386C114.027 24.2386 113.644 24.3246 113.3 24.4965C112.956 24.6527 112.66 24.8793 112.41 25.1761C112.175 25.473 111.988 25.8246 111.847 26.2308C111.722 26.6215 111.66 27.0511 111.66 27.5199V33.1449H108.589V21.6605Z" fill="white"/>
<path d="M103.779 31.6449H103.592C103.232 32.223 102.748 32.684 102.139 33.0277C101.529 33.3558 100.834 33.5199 100.053 33.5199C98.5996 33.5199 97.5137 33.0746 96.7949 32.184C96.0918 31.2933 95.7402 30.1058 95.7402 28.6215V21.6605H98.8105V28.2465C98.8105 29.0746 98.9902 29.6918 99.3496 30.098C99.7246 30.4886 100.264 30.684 100.967 30.684C101.389 30.684 101.756 30.598 102.068 30.4261C102.396 30.2386 102.67 29.9965 102.889 29.6996C103.123 29.3871 103.295 29.0277 103.404 28.6215C103.529 28.1996 103.592 27.7543 103.592 27.2855V21.6605H106.662V33.1449H103.779V31.6449Z" fill="white"/>
<path d="M88.3958 24.2855H86.3801V21.6605H88.3958V18.1449H91.4661V21.6605H94.2786V24.2855H91.4661V28.7387C91.4661 29.0043 91.4895 29.2543 91.5364 29.4886C91.5989 29.7074 91.7083 29.8949 91.8645 30.0512C92.0833 30.3012 92.3958 30.4262 92.802 30.4262C93.0676 30.4262 93.2786 30.4027 93.4348 30.3558C93.5911 30.2933 93.7395 30.2152 93.8801 30.1215L94.7473 32.8168C94.3879 32.9887 93.9973 33.1137 93.5754 33.1918C93.1692 33.2855 92.7161 33.3324 92.2161 33.3324C91.6379 33.3324 91.1145 33.2465 90.6458 33.0746C90.1926 32.8871 89.8098 32.6371 89.4973 32.3246C88.7629 31.6215 88.3958 30.6215 88.3958 29.3246V24.2855Z" fill="white"/>
<path d="M82.2058 31.6449H82.0183C81.6589 32.223 81.1746 32.684 80.5652 33.0277C79.9558 33.3558 79.2605 33.5199 78.4792 33.5199C77.0261 33.5199 75.9402 33.0746 75.2214 32.184C74.5183 31.2933 74.1667 30.1058 74.1667 28.6215V21.6605H77.2371V28.2465C77.2371 29.0746 77.4167 29.6918 77.7761 30.098C78.1511 30.4886 78.6902 30.684 79.3933 30.684C79.8152 30.684 80.1824 30.598 80.4949 30.4261C80.823 30.2386 81.0964 29.9965 81.3152 29.6996C81.5496 29.3871 81.7214 29.0277 81.8308 28.6215C81.9558 28.1996 82.0183 27.7543 82.0183 27.2855V21.6605H85.0886V33.1449H82.2058V31.6449Z" fill="white"/>
<path d="M62.7273 16.3636H73.3679V19.3636H65.8914V23.4418H72.6179V26.4418H65.8914V33.1449H62.7273V16.3636Z" fill="white"/>
<path d="M33.3333 50V41.6666C37.9444 41.6666 41.6666 37.9444 41.6666 33.3333H49.9999C49.9999 42.5555 42.5277 50 33.3333 50Z" fill="#FFD11A"/>
<path d="M33.3333 50V41.6666C28.7222 41.6666 25 37.9444 25 33.3333H16.6666C16.6666 42.5555 24.1388 50 33.3333 50Z" fill="#FFD11A"/>
<path d="M0 33.3334H8.33333C8.33333 37.9445 12.0556 41.6667 16.6667 41.6667V50C7.47222 50 0 42.5556 0 33.3334Z" fill="#FFD11A"/>
<path d="M0 33.3334H8.33333C8.33333 28.7222 12.0556 25 16.6667 25V16.6667C7.47222 16.6667 0 24.1389 0 33.3334Z" fill="#FFD11A"/>
<path d="M16.6667 0V8.33333C12.0556 8.33333 8.33333 12.0556 8.33333 16.6667H0C0 7.47222 7.47222 0 16.6667 0Z" fill="#FFD11A"/>
<path d="M16.6666 0V8.33333C21.2777 8.33333 25 12.0556 25 16.6667H33.3333C33.3333 7.47222 25.8611 0 16.6666 0Z" fill="#FFD11A"/>
<path d="M50 16.6667H41.6667C41.6667 12.0556 37.9445 8.33333 33.3334 8.33333V0C42.5278 0 50 7.47222 50 16.6667Z" fill="#FFD11A"/>
<path d="M50 16.6667H41.6667C41.6667 21.2778 37.9445 25 33.3334 25V33.3334C42.5278 33.3334 50 25.8889 50 16.6667Z" fill="#FFD11A"/>
</svg>
