<svg width="150" height="150" viewBox="0 0 150 150" fill="none" xmlns="http://www.w3.org/2000/svg">
<path d="M99.9989 149.999V125C113.832 125 124.999 113.833 124.999 100H149.998C149.998 127.666 127.582 149.999 99.9989 149.999Z" fill="#FFD11A"/>
<path d="M99.9991 149.999V125C86.1659 125 74.9993 113.833 74.9993 100H49.9996C49.9996 127.666 72.416 149.999 99.9991 149.999Z" fill="#FFD11A"/>
<path d="M0 99.9976H24.9997C24.9997 113.831 36.1662 124.997 49.9994 124.997V149.997C22.4164 149.997 0 127.664 0 99.9976Z" fill="#FFD11A"/>
<path d="M0 99.9989H24.9997C24.9997 86.1658 36.1662 74.9992 49.9994 74.9992V49.9995C22.4164 49.9995 0 72.4159 0 99.9989Z" fill="#FFD11A"/>
<path d="M49.9994 0V24.9997C36.1662 24.9997 24.9997 36.1662 24.9997 49.9994H0C0 22.4164 22.4164 0 49.9994 0Z" fill="#FFD11A"/>
<path d="M49.9995 0V24.9997C63.8327 24.9997 74.9992 36.1662 74.9992 49.9994H99.9989C99.9989 22.4164 77.5825 0 49.9995 0Z" fill="#FFD11A"/>
<path d="M149.998 49.9994H124.998C124.998 36.1662 113.832 24.9997 99.9987 24.9997V0C127.582 0 149.998 22.4164 149.998 49.9994Z" fill="#FFD11A"/>
<path d="M149.998 49.999H124.998C124.998 63.8322 113.832 74.9987 99.9987 74.9987V99.9984C127.582 99.9984 149.998 77.6654 149.998 49.999Z" fill="#FFD11A"/>
</svg>
