<svg width="20" height="19" viewBox="0 0 20 19" fill="none" xmlns="http://www.w3.org/2000/svg">
<path d="M7.9281 0.988306C8.70079 -0.32966 10.6061 -0.329658 11.3788 0.988308L13.1046 3.93205C13.3866 4.41302 13.8566 4.75445 14.4011 4.87401L17.7341 5.60571C19.2263 5.93331 19.8151 7.74537 18.8004 8.88751L16.5341 11.4386C16.1638 11.8554 15.9843 12.4078 16.0389 12.9627L16.3729 16.3586C16.5225 17.8791 14.981 18.999 13.5812 18.3869L10.4547 17.0198C9.94388 16.7964 9.363 16.7964 8.85217 17.0198L5.72564 18.3869C4.32584 18.999 2.78442 17.8791 2.93398 16.3586L3.26803 12.9627C3.32261 12.4078 3.14311 11.8554 2.77282 11.4386L0.506464 8.88751C-0.508222 7.74537 0.0805538 5.93331 1.57279 5.60571L4.90577 4.87401C5.45033 4.75445 5.92028 4.41302 6.20226 3.93205L7.9281 0.988306Z" fill="#FFCE22"/>
</svg>
