<svg width="22" height="16" viewBox="0 0 22 16" fill="none" xmlns="http://www.w3.org/2000/svg">
<path d="M20.3529 6.57751C20.6085 6.89907 20.75 7.31684 20.75 7.75002C20.75 8.18319 20.6085 8.60096 20.3529 8.92252C18.7345 10.9 15.0505 14.75 10.75 14.75C6.44952 14.75 2.76559 10.9 1.14712 8.92252C0.891498 8.60096 0.75 8.18319 0.75 7.75002C0.75 7.31684 0.891498 6.89907 1.14712 6.57751C2.76559 4.6 6.44952 0.75 10.75 0.75C15.0505 0.75 18.7345 4.6 20.3529 6.57751Z" stroke="#FFD11A" stroke-width="1.5" stroke-linecap="round" stroke-linejoin="round"/>
<path d="M10.7505 10.8609C12.4531 10.8609 13.8333 9.46807 13.8333 7.74987C13.8333 6.03167 12.4531 4.63879 10.7505 4.63879C9.04793 4.63879 7.66772 6.03167 7.66772 7.74987C7.66772 9.46807 9.04793 10.8609 10.7505 10.8609Z" stroke="#FFD11A" stroke-width="1.5" stroke-linecap="round" stroke-linejoin="round"/>
</svg>
